{"title":"Song for a Raggy Boy 2003 DVDRip XviD titler","uid":8349471,"size":964393444,"categoryP":"video","categoryS":"movies","magnet":"?xt=urn:btih:9eeafa463154ef66ab72c59ca103ad46b54d2be8&amp;dn=Song+for+a+Raggy+Boy+2003+DVDRip+XviD+titler&amp;tr=udp%3A%2F%2Ftracker.openbittorrent.com%3A80&amp;tr=udp%3A%2F%2Fopen.demonii.com%3A1337&amp;tr=udp%3A%2F%2Ftracker.coppersurfer.tk%3A6969&amp;tr=udp%3A%2F%2Fexodus.desync.com%3A6969","seeders":3,"leechers":0,"uploader":"movieZ.freak","files":3,"time":1365289618,"description":"SOURCE: DVD5\n &lt;a href=&quot;\nhttp://www.imdb.com/title/tt0339707/&quot; rel=&quot;nofollow&quot; target=&quot;_NEW&quot;&gt;\nhttp://www.imdb.com/title/tt0339707/&lt;/a&gt;\n\n-SUBTITLES: No\n\n-LANGUAGE: English\n\n-SAMPLE: Yes\n\n\nDIRECTOR: Aisling Walsh \n\nCAST:\n----------\nAidan Quinn, Iain Glen, Marc Warren, Stuart Graham, Andrew Simpson, Robert Sheehan\n\nPLOT:\n------------\n&quot;Song for a Raggy Boy&quot; is based on the true story of a single teacher's courage to stand up against an untouchable prefect's sadistic disciplinary regime and other abuse in a Catholic Reformatory and Industrial School in 1939 Ireland. \n\nGeneral\n------------\nFormat : AVI\nFormat/Info : Audio Video Interleave\nFile size : 900 MiB\nDuration : 1h 31mn\nOverall bit rate : 1 374 Kbps\nWriting application : VirtualDubMod 1.5.10.3 | www.virtualdub-fr.org || (build 2550/release)\nWriting library : VirtualDubMod build 2550/release\n\nVideo\n------------\nFormat : MPEG-4 Visual\nFormat profile : Advanced Simple@L5\nFormat settings, BVOP : 1\nFormat settings, QPel : No\nFormat settings, GMC : No warppoints\nFormat settings, Matrix : Custom\nCodec ID : XVID\nCodec ID/Hint : XviD\nDuration : 1h 31mn\nBit rate : 1 239 Kbps\nWidth : 672 pixels\nHeight : 384 pixels\nDisplay aspect ratio : 16:9\nFrame rate : 25.000 fps\nColor space : YUV\nChroma subsampling : 4:2:0\nBit depth : 8 bits\nScan type : Progressive\nCompression mode : Lossy\nBits/(Pixel*Frame) : 0.192\nStream size : 811 MiB (90%)\nWriting library : XviD 64\n\nAudio\n----------\nFormat : MPEG Audio\nFormat version : Version 1\nFormat profile : Layer 3\nMode : Joint stereo\nMode extension : MS Stereo\nCodec ID : 55\nCodec ID/Hint : MP3\nDuration : 1h 31mn\nBit rate mode : Constant\nBit rate : 128 Kbps\nChannel(s) : 2 channels\nSampling rate : 48.0 KHz\nCompression mode : Lossy\nStream size : 83.8 MiB (9%)\nAlignment : Aligned on interleaves\nInterleave, duration : 80 ms (2.00 video frames)\nInterleave, preload duration : 504 ms\nWriting library : LAME3.99r\nLanguage : English","torrent":{"xt":"urn:btih:9eeafa463154ef66ab72c59ca103ad46b54d2be8","amp;dn":"Song+for+a+Raggy+Boy+2003+DVDRip+XviD+titler","amp;tr":["udp%3A%2F%2Ftracker.openbittorrent.com%3A80","udp%3A%2F%2Fopen.demonii.com%3A1337","udp%3A%2F%2Ftracker.coppersurfer.tk%3A6969","udp%3A%2F%2Fexodus.desync.com%3A6969"],"infoHash":"9eeafa463154ef66ab72c59ca103ad46b54d2be8","infoHashBuffer":{"type":"Buffer","data":[158,234,250,70,49,84,239,102,171,114,197,156,161,3,173,70,181,77,43,232]},"announce":[],"urlList":[]}}